<?xml version="1.0" encoding="utf-8"?>
<!-- Generator: Adobe Illustrator 24.2.0, SVG Export Plug-In . SVG Version: 6.00 Build 0)  -->
<svg version="1.1" id="레이어_1" xmlns="http://www.w3.org/2000/svg" xmlns:xlink="http://www.w3.org/1999/xlink" x="0px"
	 y="0px" viewBox="0 0 100 125" style="enable-background:new 0 0 100 125;" xml:space="preserve">
<style type="text/css">
	.st0{fill:none;}
	.st1{fill:#E8D3C1;}
	.st2{fill:#FFFFFF;}
</style>
<g>
	<path class="st0" d="M24.2,82.4c-1.4,0-2.6,1.2-2.6,2.6c0,1.4,1.2,2.6,2.6,2.6h37.4c-0.7-1.6-1.1-3.4-1.2-5.2H24.2z"/>
	<path class="st1" d="M24.2,78.4h2.1V9.3h-4.2c-1.9,0-3.5,1.6-3.5,3.5v68.7C19.8,79.6,21.9,78.4,24.2,78.4z"/>
	<path class="st1" d="M78.2,63c1.1,0,2.1,0.1,3.2,0.3V12.8c0-1.9-1.6-3.5-3.5-3.5h-4.2v30.3l-5.2-4.1l-0.3,0.3l-0.8,0.6l-4.1,3.3
		v-3.1H45.6c-1.1,0-2-0.9-2-2V24.1c0-1.1,0.9-2,2-2h17.8V9.3H27.8v69.1h32.7C61.7,69.7,69.2,63,78.2,63z"/>
	<path class="st1" d="M24.2,87.7c-1.4,0-2.6-1.2-2.6-2.6c0-1.4,1.2-2.6,2.6-2.6h36.1c0-0.5-0.1-1-0.1-1.5c0-0.5,0-1,0.1-1.5H24.2
		c-3.1,0-5.6,2.5-5.6,5.6c0,3.1,2.5,5.6,5.6,5.6h38.9c-0.6-0.9-1.1-1.9-1.6-3H24.2z"/>
	<path d="M50.4,35.8l-0.8,0.6C49.9,36.3,50.2,36.1,50.4,35.8z"/>
	<rect x="68.8" y="78.2" class="st2" width="6.7" height="0.2"/>
	<rect x="80.9" y="78.2" class="st2" width="0.5" height="0.2"/>
	<path class="st1" d="M81.4,67.4c-1-0.2-2-0.3-3-0.3c-1.1,0-2.2,0.1-3.2,0.4c-5.3,1.3-9.4,5.6-10.4,11c-0.1,0.3-0.1,0.7-0.1,1
		c-0.1,0.5-0.1,1-0.1,1.5c0,0.5,0,1,0.1,1.5c0.2,1.9,0.8,3.7,1.7,5.2c0.6,1.1,1.4,2.1,2.2,3c2.5,2.6,6,4.1,9.9,4.1
		c0.9,0,1.8-0.1,2.7-0.3c6.4-1.3,11.2-6.9,11.2-13.6C92.3,74.3,87.6,68.7,81.4,67.4z M88,83.6L88,83.6h-6.6h-0.5v6.9h-5.4v0v-2.8v-4
		h-6.7v-1.2v-3v-1v-0.2h6.7v-6.9h5.4v6.9h0.5H88V83.6z"/>
</g>
</svg>
