<?xml version="1.0" encoding="utf-8"?>
<!-- Generator: Adobe Illustrator 24.2.0, SVG Export Plug-In . SVG Version: 6.00 Build 0)  -->
<svg version="1.1" id="레이어_1" xmlns="http://www.w3.org/2000/svg" xmlns:xlink="http://www.w3.org/1999/xlink" x="0px"
	 y="0px" viewBox="0 0 100 125" style="enable-background:new 0 0 100 125;" xml:space="preserve">
<style type="text/css">
	.st0{display:none;}
	.st1{display:inline;}
	.st2{display:inline;fill:none;stroke:#FFFFFF;stroke-miterlimit:10;}
	.st3{display:inline;fill:none;}
	.st4{display:inline;stroke:#FFFFFF;stroke-miterlimit:10;}
	.st5{fill:#796050;}
</style>
<g class="st0">
	<rect x="-192" y="0" class="st1" width="185" height="99"/>
	<rect y="-36" class="st1" width="100" height="30"/>
	<text transform="matrix(1 0 0 1 66 -19.5)" class="st1" style="font-family:'ArialMT'; font-size:2.4px;">http://thenounproject.com</text>
	<text transform="matrix(1 0 0 1 7.166 -24.5)" class="st1" style="font-family:'ArialMT'; font-size:6.1578px;">The Noun Project</text>
	<text transform="matrix(1 0 0 1 8.286 -19.7)" class="st1" style="font-family:'ArialMT'; font-size:4px;">Icon Template</text>
	<text transform="matrix(1 0 0 1 -178.5 10.5)" class="st1" style="font-family:'ArialMT'; font-size:6.1578px;">Reminders</text>
	<line class="st2" x1="8" y1="-14.5" x2="18" y2="-14.5"/>
	<line class="st2" x1="-179" y1="16.5" x2="-162" y2="16.5"/>
	<g class="st1">
		<g>
			<g>
				<rect x="-170.8" y="31.3" width="8.7" height="8.6"/>
				<path d="M-164.5,42.3h4.7v-4.7h-4.7V42.3z M-159.3,42.7h-5.6v-5.6h5.6V42.7L-159.3,42.7z M-166.2,44.1h8.3v-8.2h-8.3V44.1
					L-166.2,44.1z M-157.5,44.5h-9.2v-9.1h9.2V44.5L-157.5,44.5z"/>
				<polygon points="-166.1,44.1 -166.3,44 -158,35.8 -157.9,35.9 				"/>
			</g>
		</g>
	</g>
	<rect x="-179" y="58" class="st3" width="35" height="32.5"/>
	<text transform="matrix(1 0 0 1 -179 60.1572)" class="st1" style="font-family:'ArialMT'; font-size:3px;">Strokes</text>
	<text transform="matrix(1 0 0 1 -179 65.1572)" class="st1" style="font-family:'ArialMT'; font-size:2.4px;">Try to keep strokes at 4px</text>
	<text transform="matrix(1 0 0 1 -179 70.1572)" class="st1" style="font-family:'ArialMT'; font-size:2.4px;">Minimum stroke weight is 2px</text>
	<text transform="matrix(1 0 0 1 -179 74.6572)" class="st1" style="font-family:'ArialMT'; font-size:2.4px;">For thicker strokes use even </text>
	<text transform="matrix(1 0 0 1 -179 77.6572)" class="st1" style="font-family:'ArialMT'; font-size:2.4px;">numbers: 6px, 8px etc.</text>
	<text transform="matrix(1 0 0 1 -179 82.1572)" class="st1" style="font-family:'ArialMT'; font-size:2.4px;">Remember to expand strokes </text>
	<text transform="matrix(1 0 0 1 -179 85.1572)" class="st1" style="font-family:'ArialMT'; font-size:2.4px;">before saving as an SVG </text>
	<rect x="-136.5" y="58" class="st3" width="35" height="32.5"/>
	<text transform="matrix(1 0 0 1 -136.5 60.1572)" class="st1" style="font-family:'ArialMT'; font-size:3px;">Size</text>
	<text transform="matrix(1 0 0 1 -136.5 65.1572)" class="st1" style="font-family:'ArialMT'; font-size:2.4px;">Cannot be wider or taller than </text>
	<text transform="matrix(1 0 0 1 -136.5 68.6572)" class="st1" style="font-family:'ArialMT'; font-size:2.4px;">100px (artboard size)</text>
	<text transform="matrix(1 0 0 1 -136.5 73.6572)" class="st1" style="font-family:'ArialMT'; font-size:2.4px;">Scale your icon to fill as much of </text>
	<text transform="matrix(1 0 0 1 -136.5 76.6572)" class="st1" style="font-family:'ArialMT'; font-size:2.4px;">the artboard as possible</text>
	<rect x="-94" y="58" class="st3" width="35" height="32.5"/>
	<text transform="matrix(1 0 0 1 -94 60.1572)" class="st1" style="font-family:'ArialMT'; font-size:3px;">Ungroup</text>
	<text transform="matrix(1 0 0 1 -94 65.1572)" class="st1" style="font-family:'ArialMT'; font-size:2.4px;">If your design has more than one </text>
	<text transform="matrix(1 0 0 1 -94 68.1572)" class="st1" style="font-family:'ArialMT'; font-size:2.4px;">shape, make sure to ungroup</text>
	<rect x="-50" y="58" class="st3" width="35" height="32.5"/>
	<text transform="matrix(1 0 0 1 -50 60.1572)" class="st1" style="font-family:'ArialMT'; font-size:3px;">Save as</text>
	<text transform="matrix(1 0 0 1 -50 65.1572)" class="st1" style="font-family:'ArialMT'; font-size:2.4px;">Save as .SVG and make sure </text>
	<text transform="matrix(1 0 0 1 -50 68.1572)" class="st1" style="font-family:'ArialMT'; font-size:2.4px;">“Use Artboards” is checked</text>
	<text transform="matrix(1.0074 0 0 1 -125.542 30.5934)" class="st1" style="font-family:'ArialMT'; font-size:2.5731px;">100px</text>
	<text transform="matrix(1.0074 0 0 1 -41 39.0001)" class="st1" style="font-family:'ArialMT'; font-size:5.1462px;">.SVG</text>
	<rect x="-126.5" y="34.8" class="st1" width="10.3" height="10.2"/>
	<rect x="-126.5" y="31.8" class="st1" width="0.5" height="2.3"/>
	<rect x="-116.8" y="31.8" class="st1" width="0.5" height="2.3"/>
	<rect x="-127" y="32.3" class="st1" width="11.2" height="0.6"/>
	<g class="st1">
		<rect x="-83.8" y="33.8" width="10.3" height="10.2"/>
		<rect x="-76.8" y="28.7" width="3.3" height="3.3"/>
	</g>
	<rect x="-178.5" y="22.5" class="st4" width="30" height="30"/>
	<rect x="-136.5" y="22.5" class="st4" width="30" height="30"/>
	<rect x="-93.5" y="22.5" class="st4" width="30" height="30"/>
	<rect x="-49.5" y="22.5" class="st4" width="30" height="30"/>
</g>
<g>
	<g>
		<path class="st5" d="M72,31.1C66.8,26,61.5,20.8,56.3,15.7c-3.4-3.3-6.7-6.7-10.1-10C45,4.5,43,5.3,43,7.1c0,1.9,0,3.8,0,5.8
			c0,0-0.1,0.1-0.1,0.1c-2.2,1.8-5.1,3.2-7.8,2.6c-1-1.1-2.1-2.2-3.1-3.3c-0.6-0.7-1.3-1.4-2-2.1c-1.2-1.3-3.3-0.3-3.3,1.4
			c0,14.9,0.1,29.9,0.1,44.8c0,2.4,0,4.9,0,7.3c0,1.6,1.4,2.6,2.4,3.8c6,6.4,12,12.7,18.1,19.1c1.4,1.5,2.7,3,4.2,4.4
			c3.6,3.5,9.3,4.6,14.1,3.5c3.4-0.8,7.5-4.9,7.5-8.4c0-2.7,0-5.4,0-8.1c0-14.2,0-28.4,0-42.6C73,33.7,73.1,32.2,72,31.1z M57.8,23
			c3,2.9,6.1,5.8,9,8.8c0.6,0.6,0.8,1.1,1.4,1.7c0,0.2-0.2,0.4-0.2,0.6c0,0,0,0.1,0,0.1c0,0.8,0.1,1.5-0.3,2.2
			c-0.8,1.3-2.1,2.3-3.8,2.7c1.1-0.8,2.1-1.8,2.8-3.3c1.1-2.6-0.5-3.6-2.2-5.3C58.4,24.4,52,18.3,46,12.3c0-0.2,0-0.4,0-0.5
			C50,15.5,54,19.3,57.8,23z M38.1,18.4c0,0,0.1,0.1,0.1,0.1c5.6,5.6,11.3,11.3,16.9,16.9c1,1,2.6-0.6,1.6-1.6
			c-5.4-5.4-10.8-10.8-16.2-16.2c0.5-0.2,1.1-0.5,1.6-0.8c5.7,5.7,11.5,11.5,17.2,17.2c1,1,2.6-0.6,1.6-1.6
			C55.3,27,49.7,21.3,44,15.7c0.3-0.3,0.7-0.5,1-0.8c5,5,9.9,9.9,14.9,14.9c1.2,1.2,2.3,2.3,3.5,3.5c0.3,0.3,0.5,0.5,0.8,0.8
			c-0.5,3.8-5.4,3.9-8.7,3.4c-1.8-2-3.7-4-5.5-5.9c-4.1-4.3-8.1-8.7-12.2-13C37.8,18.5,37.9,18.4,38.1,18.4z M68,86
			c0,1.3-0.2,1.4-1.1,2.6c-2.6,3.1-7,2.8-10.3,1.3c-1.9-0.9-3-2.3-4.4-3.8c-2.8-3-5.6-6-8.5-9c-4.4-4.6-8.7-9.2-13-13.8
			c0-0.7,0-1.5,0-2.2c0-3.2,0-6.4,0-9.6c0-11.7-0.1-23.4-0.1-35.1c3.5,3.7,7,7.5,10.5,11.2c3,3.2,5.9,6.3,8.9,9.5
			c1.2,1.3,1.9,2.8,3.4,3.8c4.4,3.2,10.7,2.8,14.7,0c0,12.3,0,24.6,0,36.9C68,80.6,68,83.3,68,86z"/>
		<path class="st5" d="M53,44c0,14,0,27,0,41c0,1,3,1,3,0c0-14,0-27,0-41C56,42,53,42,53,44z"/>
	</g>
</g>
</svg>
