<?xml version="1.0" encoding="utf-8"?>
<!-- Generator: Adobe Illustrator 24.2.0, SVG Export Plug-In . SVG Version: 6.00 Build 0)  -->
<svg version="1.1" id="레이어_1" xmlns="http://www.w3.org/2000/svg" xmlns:xlink="http://www.w3.org/1999/xlink" x="0px"
	 y="0px" viewBox="0 0 100 125" style="enable-background:new 0 0 100 125;" xml:space="preserve">
<style type="text/css">
	.st0{fill-rule:evenodd;clip-rule:evenodd;fill:#4B4B49;}
	.st1{fill:#4B4B49;}
</style>
<path d="M25.4,21.7c0.1,0,0.1-0.1,0.2-0.1c0,0,0,0,0,0C25.5,21.6,25.4,21.7,25.4,21.7z"/>
<path d="M25.4,21.7c0.1,0,0.1-0.1,0.2-0.1c0,0,0,0,0,0C25.5,21.6,25.4,21.7,25.4,21.7z"/>
<path class="st0" d="M25.5,26.6c0,1.5-1.2,2.7-2.7,2.7h-5.1c-1.5,0-2.7-1.2-2.7-2.7v-9.1c0-1.5,1.2-2.7,2.7-2.7h5.1
	c1.5,0,2.7,1.2,2.7,2.7V26.6z"/>
<path class="st0" d="M66.7,26.6c0,1.5-1.2,2.7-2.7,2.7H59c-1.5,0-2.7-1.2-2.7-2.7v-9.1c0-1.5,1.2-2.7,2.7-2.7h5.1
	c1.5,0,2.7,1.2,2.7,2.7V26.6z"/>
<path class="st0" d="M11,36.8h59.9c1.5,0,2.7,1.2,2.7,2.7l3.3-3.2V25c0-1.5-1.2-2.7-2.7-2.7h-5.7v5.4c0,2-1.6,3.6-3.6,3.6h-6.8
	c-2,0-3.6-1.6-3.6-3.6v-5.4H27.3v5.4c0,2-1.6,3.6-3.6,3.6h-6.8c-2,0-3.6-1.6-3.6-3.6v-5.4H7.7C6.2,22.3,5,23.5,5,25v54.9
	c0,1.5,1.2,2.7,2.7,2.7h66.5c1.5,0,2.7-1.2,2.7-2.7V58.2V57l-3.3,3.4v16.2c0,1.5-1.2,2.7-2.7,2.7H11c-1.5,0-2.7-1.2-2.7-2.7V39.4
	C8.3,38,9.5,36.8,11,36.8z"/>
<g>
	<path class="st0" d="M25.9,53.4c0,1.5-1.2,2.7-2.7,2.7h-6.8c-1.5,0-2.7-1.2-2.7-2.7v-6.8c0-1.5,1.2-2.7,2.7-2.7h6.8
		c1.5,0,2.7,1.2,2.7,2.7V53.4z"/>
	<path class="st0" d="M41.8,53.4c0,1.5-1.2,2.7-2.7,2.7h-6.8c-1.5,0-2.7-1.2-2.7-2.7v-6.8c0-1.5,1.2-2.7,2.7-2.7h6.8
		c1.5,0,2.7,1.2,2.7,2.7V53.4z"/>
	<path class="st0" d="M25.9,69.9c0,1.5-1.2,2.7-2.7,2.7h-6.8c-1.5,0-2.7-1.2-2.7-2.7v-6.8c0-1.5,1.2-2.7,2.7-2.7h6.8
		c1.5,0,2.7,1.2,2.7,2.7V69.9z"/>
	<path class="st0" d="M41.8,69.9c0,1.5-1.2,2.7-2.7,2.7h-6.8c-1.5,0-2.7-1.2-2.7-2.7v-6.8c0-1.5,1.2-2.7,2.7-2.7h6.8
		c1.5,0,2.7,1.2,2.7,2.7V69.9z"/>
</g>
<path class="st1" d="M93.3,28.8c-2.1-1.9-5.3-1.7-7.2,0.4l-15.4,17l0.8,0.7L56.7,63.3c-0.6,0.7-3.6,5.1-3,5.7l0.8,0.7l-1.3,2.5
	l1.1,1l2.4-1.5l0.7,0.7c0.7,0.6,4.8-2.9,5.4-3.6l14.8-16.4l0.8,0.7l15.4-17C95.6,33.9,95.4,30.7,93.3,28.8z"/>
</svg>
