<?xml version="1.0" encoding="utf-8"?>
<!-- Generator: Adobe Illustrator 24.2.0, SVG Export Plug-In . SVG Version: 6.00 Build 0)  -->
<svg version="1.1" id="레이어_1" xmlns="http://www.w3.org/2000/svg" xmlns:xlink="http://www.w3.org/1999/xlink" x="0px"
	 y="0px" viewBox="0 0 100 125" style="enable-background:new 0 0 100 125;" xml:space="preserve">
<style type="text/css">
	.st0{display:none;}
	.st1{display:inline;}
	.st2{fill:#E8D3C1;}
</style>
<g class="st0">
	<rect x="-660.9" y="-37.2" class="st1" width="1370.9" height="1263.2"/>
</g>
<g>
	<path class="st2" d="M20.6,26.7c3,0,5.8-1.2,7.8-3.2c-0.2-1-0.3-2.1-0.3-3.1c0-3.2,1-6.3,2.7-8.8c-1.7-4-5.6-6.8-10.1-6.8
		c-6,0-11,4.9-11,10.9C9.7,21.7,14.6,26.7,20.6,26.7z"/>
	<path class="st2" d="M31.6,32.5c-3-2.5-6.8-4-10.9-4c-9.5,0-17.1,7.7-17.2,17.1l0,6.6c0,1.4,1.1,2.5,2.5,2.6l15.9,0l0-4.6
		C21.9,42.9,25.8,36.5,31.6,32.5z"/>
	<path class="st2" d="M44.1,31.3c6,0,11-4.9,11-10.9c0-6-4.9-11-10.9-11c-6,0-11,4.9-11,10.9C33.2,26.3,38.1,31.3,44.1,31.3z"/>
	<path class="st2" d="M44.1,33.2c-9.5,0-17.1,7.7-17.2,17.1l0,6.6c0,1.4,1.1,2.5,2.5,2.5l29.2,0c1.4,0,2.5-1.1,2.6-2.5c0,0,0,0,0,0
		l0-6.6C61.3,40.9,53.6,33.2,44.1,33.2z"/>
	<path class="st2" d="M82.5,37.5C82.5,37.5,82.5,37.5,82.5,37.5c-2.9-5.3-8.4-8.9-14.9-8.9c-4.1,0-7.9,1.5-10.9,3.9
		c5.7,4,9.6,10.3,9.6,17.8l0,4.6l3.6,0c-0.4-1.3-0.6-3-0.6-4.4C69.3,43.1,75.1,37.5,82.5,37.5z"/>
	<path class="st2" d="M59.1,23.4c2,2,4.7,3.2,7.8,3.2c6,0,11-5,10.9-11c0-6-5-11-11-10.9c-4.5,0-8.4,2.8-10.1,6.8
		c1.7,2.5,2.7,5.6,2.7,8.8C59.4,21.4,59.3,22.4,59.1,23.4z"/>
	<path class="st2" d="M83.2,41.1c-0.8,0-1.6,0.1-2.3,0.3c-4.4,1-7.7,5-7.7,9.8c0,5.5,4.5,10,10,10c0.7,0,1.3-0.1,1.9-0.2
		c4.6-0.9,8.1-5,8.1-9.9C93.3,45.6,88.8,41.1,83.2,41.1z M90.1,53.1L90.1,53.1h-5.1v5h-3.9v0v-5h-4.9v-3.9h4.9v-5h3.9v5h5.1V53.1z"
		/>
</g>
</svg>
