<?xml version="1.0" encoding="utf-8"?>
<!-- Generator: Adobe Illustrator 24.2.0, SVG Export Plug-In . SVG Version: 6.00 Build 0)  -->
<svg version="1.1" id="레이어_1" xmlns="http://www.w3.org/2000/svg" xmlns:xlink="http://www.w3.org/1999/xlink" x="0px"
	 y="0px" viewBox="0 0 70 87.5" style="enable-background:new 0 0 70 87.5;" xml:space="preserve">
<style type="text/css">
	.st0{fill:#AFAFAF;}
</style>
<path class="st0" d="M66,17.9H44.7v-4.7c0-4.6-3.7-8.3-8.3-8.3c-4.6,0-8.3,3.7-8.3,8.3v4.7H4c-1.1,0-2,0.9-2,2V63c0,1.1,0.9,2,2,2
	H66c1.1,0,2-0.9,2-2V20C68,18.8,67.1,17.9,66,17.9z M30,13.2c0-3.5,2.8-6.3,6.3-6.3s6.3,2.8,6.3,6.3v5.7c0,0,0,0,0,0s0,0,0,0v2.7H30
	V13.2z M4,63l0-43.1H28v1.7h-1.1c-0.6,0-1,0.4-1,1s0.4,1,1,1H29h14.6h2.1c0.6,0,1-0.4,1-1s-0.4-1-1-1h-1.1v-1.7L66,20l0,43.1L4,63z"
	/>
<path class="st0" d="M31.2,29.5H9.6c-0.6,0-1,0.4-1,1v22c0,0.6,0.4,1,1,1h4.3h13h4.3c0.6,0,1-0.4,1-1v-22
	C32.2,30,31.8,29.5,31.2,29.5z M14.9,51.5v-3.3c0-1.1,0.8-2,1.9-2.1c2.4,1.5,4.9,1.5,7.2,0c1.1,0.1,1.9,1,1.9,2.1v3.3H14.9z
	 M30.2,51.5h-2.3v-3.3c0-2.3-1.9-4.1-4.1-4.1c-0.2,0-0.4,0.1-0.6,0.2c-1.9,1.3-3.6,1.3-5.5,0c-0.2-0.1-0.4-0.2-0.6-0.2
	c-2.3,0-4.1,1.9-4.1,4.1v3.3h-2.3v-20h19.6V51.5z"/>
<path class="st0" d="M20.4,44.3c2.6,0,4.6-2.1,4.6-4.6S23,35,20.4,35c-2.6,0-4.6,2.1-4.6,4.6S17.9,44.3,20.4,44.3z M20.4,37
	c1.4,0,2.6,1.2,2.6,2.6c0,1.5-1.2,2.6-2.6,2.6s-2.6-1.2-2.6-2.6C17.8,38.2,19,37,20.4,37z"/>
<path class="st0" d="M60.4,30.3H39c-0.6,0-1,0.4-1,1s0.4,1,1,1h21.3c0.6,0,1-0.4,1-1S60.9,30.3,60.4,30.3z"/>
<path class="st0" d="M60.4,40.5H39c-0.6,0-1,0.4-1,1s0.4,1,1,1h21.3c0.6,0,1-0.4,1-1S60.9,40.5,60.4,40.5z"/>
<path class="st0" d="M60.4,50.7H39c-0.6,0-1,0.4-1,1s0.4,1,1,1h21.3c0.6,0,1-0.4,1-1S60.9,50.7,60.4,50.7z"/>
<path class="st0" d="M36.3,8.5c-2.1,0-3.9,1.7-3.9,3.9s1.7,3.9,3.9,3.9c2.1,0,3.9-1.7,3.9-3.9S38.5,8.5,36.3,8.5z M36.3,14.2
	c-1,0-1.9-0.8-1.9-1.9s0.8-1.9,1.9-1.9s1.9,0.8,1.9,1.9S37.4,14.2,36.3,14.2z"/>
</svg>
