<?xml version="1.0" encoding="utf-8"?>
<!-- Generator: Adobe Illustrator 24.2.0, SVG Export Plug-In . SVG Version: 6.00 Build 0)  -->
<svg version="1.1" xmlns="http://www.w3.org/2000/svg" xmlns:xlink="http://www.w3.org/1999/xlink" x="0px" y="0px"
	 viewBox="0 0 100 125" style="enable-background:new 0 0 100 125;" xml:space="preserve">
<style type="text/css">
	.st0{fill:#796050;}
</style>
<g id="레이어_2">
</g>
<g id="레이어_1">
	<path class="st0" d="M97.5,50C97.5,23.8,76.2,2.5,50,2.5S2.5,23.8,2.5,50S23.8,97.5,50,97.5S97.5,76.2,97.5,50z M36,68.7L21.9,54.5
		C20.7,53.3,20,51.6,20,50s0.6-3.3,1.9-4.5l14.2-14.2c2.5-2.5,6.5-2.5,9,0s2.5,6.5,0,9L35.4,50l9.7,9.7c2.5,2.5,2.5,6.5,0,9
		S38.5,71.2,36,68.7z M66,69.8L51.9,55.6c-1.2-1.2-1.9-2.9-1.9-4.5s0.6-3.3,1.9-4.5l14.2-14.2c2.5-2.5,6.5-2.5,9,0s2.5,6.5,0,9
		l-9.7,9.7l9.7,9.7c2.5,2.5,2.5,6.5,0,9S68.5,72.3,66,69.8z"/>
</g>
</svg>
