<?xml version="1.0" encoding="utf-8"?>
<!-- Generator: Adobe Illustrator 24.2.0, SVG Export Plug-In . SVG Version: 6.00 Build 0)  -->
<svg version="1.1" id="레이어_1" xmlns="http://www.w3.org/2000/svg" xmlns:xlink="http://www.w3.org/1999/xlink" x="0px"
	 y="0px" viewBox="0 0 100 100" style="enable-background:new 0 0 100 100;" xml:space="preserve">
<style type="text/css">
	.st0{fill:#E8974C;}
</style>
<path class="st0" d="M68.3,25c8.3,0,15,6.7,15,15S67.1,66.7,50,80.8C32.9,66.3,16.7,47.9,16.7,40c0-8.3,6.7-15,15-15
	C41.7,25,50,37.5,50,37.5S57.9,25,68.3,25 M68.3,16.7c-7.5,0-14.2,3.8-18.3,9.6c-4.2-5.8-10.8-9.6-18.3-9.6
	C18.8,16.7,8.3,27.1,8.3,40C8.3,58.3,50,91.7,50,91.7S91.7,58.3,91.7,40C91.7,27.1,81.3,16.7,68.3,16.7L68.3,16.7z"/>
</svg>
