<?xml version="1.0" encoding="utf-8"?>
<!-- Generator: Adobe Illustrator 24.2.0, SVG Export Plug-In . SVG Version: 6.00 Build 0)  -->
<svg version="1.1" id="레이어_1" xmlns="http://www.w3.org/2000/svg" xmlns:xlink="http://www.w3.org/1999/xlink" x="0px"
	 y="0px" viewBox="0 0 100 125" style="enable-background:new 0 0 100 125;" xml:space="preserve">
<style type="text/css">
	.st0{fill:#AFAFAF;}
</style>
<g>
	<path class="st0" d="M64.1,18.8V7.5H34.8v11.3H10.4v6.1h7.3l5.2,67.7h53.3l5.2-67.7h8.3v-6.1C89.7,18.8,64.1,18.8,64.1,18.8z
		 M58.1,13.5v5.2H40.9v-5.2C40.9,13.5,58.1,13.5,58.1,13.5z M28.4,86.4l-4.7-61.6h51.5l-4.8,61.6H28.4z"/>
	<rect x="46.4" y="33.6" class="st0" width="6.1" height="44.3"/>
	
		<rect x="39.7" y="52.7" transform="matrix(5.421528e-02 -0.9985 0.9985 5.421528e-02 2.8342 114.4993)" class="st0" width="44.4" height="6.1"/>
	
		<rect x="34" y="33.6" transform="matrix(0.9985 -5.409198e-02 5.409198e-02 0.9985 -2.9616 2.0847)" class="st0" width="6.1" height="44.4"/>
</g>
</svg>
