<?xml version="1.0" encoding="utf-8"?>
<!-- Generator: Adobe Illustrator 24.2.0, SVG Export Plug-In . SVG Version: 6.00 Build 0)  -->
<svg version="1.1" id="레이어_1" xmlns="http://www.w3.org/2000/svg" xmlns:xlink="http://www.w3.org/1999/xlink" x="0px"
	 y="0px" viewBox="0 0 1024 1280" style="enable-background:new 0 0 1024 1280;" xml:space="preserve">
<style type="text/css">
	.st0{fill:#AFAFAF;}
</style>
<g>
	<path class="st0" d="M853,547.2H171.5v-92.9c0-39.2,31.9-71.1,71.1-71.1h539.3c39.2,0,71.1,31.9,71.1,71.1V547.2z M211.5,507.2H813
		v-52.9c0-17.1-14-31.1-31.1-31.1H242.6c-17.1,0-31.1,14-31.1,31.1V507.2z"/>
	<path class="st0" d="M781.9,957.9H242.6c-39.2,0-71.1-31.9-71.1-71.1v-91.6H853v91.6C853,926,821.1,957.9,781.9,957.9z
		 M211.5,835.2v51.6c0,17.1,14,31.1,31.1,31.1h539.3c17.1,0,31.1-14,31.1-31.1v-51.6H211.5z"/>
	<path class="st0" d="M729.3,423.2H295.2v-140c0-119.7,97.4-217.1,217.1-217.1c58,0,112.5,22.6,153.4,63.6
		c41,41,63.6,95.5,63.6,153.5L729.3,423.2L729.3,423.2z M335.2,383.2h354.1v-100c0-97.7-79.4-177.1-177-177.1
		c-97.7,0-177.1,79.4-177.1,177.1L335.2,383.2L335.2,383.2z"/>
	<path class="st0" d="M656.1,423.2H368.5v-140c0-79.3,64.5-143.8,143.8-143.8s143.8,64.5,143.8,143.8V423.2z M408.5,383.2h207.6
		v-100c0-57.2-46.6-103.8-103.8-103.8S408.5,226,408.5,283.2V383.2z"/>
	<path class="st0" d="M912.8,835.2h-801c-22.3,0-40.5-18.2-40.5-40.5v-247c0-22.3,18.2-40.5,40.5-40.5h801
		c22.3,0,40.5,18.2,40.5,40.5v247C953.3,817,935.1,835.2,912.8,835.2z M111.8,547.2c-0.3,0-0.5,0.2-0.5,0.5v247
		c0,0.3,0.2,0.5,0.5,0.5h801c0.3,0,0.5-0.2,0.5-0.5v-247c0-0.3-0.2-0.5-0.5-0.5H111.8z"/>
	<rect x="213.7" y="604.2" class="st0" width="40" height="134"/>
	
		<rect x="213.7" y="604.2" transform="matrix(0.5002 -0.8659 0.8659 0.5002 -464.4027 537.784)" class="st0" width="40" height="134"/>
	
		<rect x="166.7" y="651.2" transform="matrix(0.8659 -0.5002 0.5002 0.8659 -304.4056 206.9205)" class="st0" width="134" height="40"/>
	<rect x="399.4" y="604.2" class="st0" width="40" height="134"/>
	
		<rect x="399.4" y="604.2" transform="matrix(0.5002 -0.8659 0.8659 0.5002 -371.6017 698.5814)" class="st0" width="40" height="134"/>
	
		<rect x="352.4" y="651.2" transform="matrix(0.8659 -0.5002 0.5002 0.8659 -279.5004 299.8116)" class="st0" width="134" height="40"/>
	<rect x="585.1" y="604.2" class="st0" width="40" height="134"/>
	
		<rect x="585" y="604.2" transform="matrix(0.5002 -0.8659 0.8659 0.5002 -278.8007 859.3788)" class="st0" width="40" height="134"/>
	
		<rect x="538.2" y="651.2" transform="matrix(0.8659 -0.5002 0.5002 0.8659 -254.5952 392.7026)" class="st0" width="134" height="40"/>
	<rect x="770.9" y="604.2" class="st0" width="40" height="134"/>
	
		<rect x="770.8" y="604.2" transform="matrix(0.5002 -0.8659 0.8659 0.5002 -185.9493 1020.2628)" class="st0" width="40" height="134"/>
	
		<rect x="724" y="651.2" transform="matrix(0.8659 -0.5002 0.5002 0.8659 -229.6761 485.6439)" class="st0" width="134" height="40"/>
</g>
</svg>
