<?xml version="1.0" encoding="utf-8"?>
<!-- Generator: Adobe Illustrator 24.2.0, SVG Export Plug-In . SVG Version: 6.00 Build 0)  -->
<svg version="1.1" xmlns="http://www.w3.org/2000/svg" xmlns:xlink="http://www.w3.org/1999/xlink" x="0px" y="0px"
	 viewBox="0 0 100 125" style="enable-background:new 0 0 100 125;" xml:space="preserve">
<style type="text/css">
	.st0{fill:#796050;}
</style>
<g id="레이어_2">
</g>
<g id="레이어_1">
	<path class="st0" d="M2.5,50c0,26.2,21.3,47.5,47.5,47.5S97.5,76.2,97.5,50S76.2,2.5,50,2.5S2.5,23.8,2.5,50z M64,31.3l14.1,14.2
		c1.2,1.2,1.9,2.9,1.9,4.5s-0.6,3.3-1.9,4.5L63.9,68.7c-2.5,2.5-6.5,2.5-9,0s-2.5-6.5,0-9l9.7-9.7l-9.7-9.7c-2.5-2.5-2.5-6.5,0-9
		S61.5,28.8,64,31.3z M34,30.2l14.1,14.2c1.2,1.2,1.9,2.9,1.9,4.5s-0.6,3.3-1.9,4.5L33.9,67.6c-2.5,2.5-6.5,2.5-9,0s-2.5-6.5,0-9
		l9.7-9.7l-9.7-9.7c-2.5-2.5-2.5-6.5,0-9S31.5,27.7,34,30.2z"/>
</g>
</svg>
