<?xml version="1.0" encoding="utf-8"?>
<!-- Generator: Adobe Illustrator 24.2.0, SVG Export Plug-In . SVG Version: 6.00 Build 0)  -->
<svg version="1.1" id="레이어_1" xmlns="http://www.w3.org/2000/svg" xmlns:xlink="http://www.w3.org/1999/xlink" x="0px"
	 y="0px" viewBox="0 0 100 125" style="enable-background:new 0 0 100 125;" xml:space="preserve">
<style type="text/css">
	.st0{fill:#796050;}
</style>
<path class="st0" d="M2.5,50c0,26.2,21.3,47.5,47.5,47.5S97.5,76.2,97.5,50S76.2,2.5,50,2.5S2.5,23.8,2.5,50z M48.2,30.2l14.1,14.2
	c1.2,1.2,1.9,2.9,1.9,4.5s-0.6,3.3-1.9,4.5L48.1,67.6c-2.5,2.5-6.5,2.5-9,0s-2.5-6.5,0-9l9.7-9.7l-9.7-9.7c-2.5-2.5-2.5-6.5,0-9
	S45.7,27.7,48.2,30.2z"/>
</svg>
